<svg width="51" height="49" viewBox="0 0 51 49" fill="none" xmlns="http://www.w3.org/2000/svg">
<path d="M21.9871 3.81434C23.4841 1.62999 24.2326 0.537814 25.2866 0.537814C26.3405 0.537814 27.089 1.62999 28.586 3.81435L34.23 12.0496C34.6281 12.6304 34.8271 12.9209 35.1063 13.1237C35.3854 13.3265 35.7231 13.426 36.3985 13.6251L45.9748 16.448C48.5149 17.1968 49.7849 17.5712 50.1106 18.5735C50.4362 19.5759 49.6288 20.6252 48.014 22.724L41.9259 30.6366C41.4965 31.1947 41.2818 31.4737 41.1752 31.8018C41.0686 32.13 41.0782 32.4819 41.0976 33.1858L41.3721 43.1657C41.4449 45.8128 41.4813 47.1364 40.6286 47.7559C39.776 48.3754 38.5285 47.9317 36.0334 47.0445L26.6267 43.6995C25.9633 43.4636 25.6316 43.3456 25.2866 43.3456C24.9415 43.3456 24.6098 43.4636 23.9464 43.6995L14.5397 47.0445C12.0447 47.9317 10.7971 48.3754 9.94448 47.7559C9.09183 47.1364 9.12823 45.8128 9.20103 43.1657L9.47552 33.1858C9.49487 32.4819 9.50455 32.13 9.39794 31.8018C9.29132 31.4737 9.07663 31.1947 8.64723 30.6366L2.55912 22.724C0.944283 20.6252 0.136865 19.5759 0.462549 18.5735C0.788232 17.5712 2.05826 17.1968 4.59831 16.448L14.1746 13.6251C14.85 13.426 15.1877 13.3265 15.4668 13.1237C15.746 12.9209 15.945 12.6304 16.3431 12.0496L21.9871 3.81434Z" fill="#F4EBEB"/>
</svg>
